<svg id="svg" version="1.1" xmlns="http://www.w3.org/2000/svg" xmlns:xlink="http://www.w3.org/1999/xlink" width="400" height="400" viewBox="0, 0, 400,400"><g id="svgg"><path id="path0" d="M30.100 0.291 C 29.165 0.376,28.400 0.616,28.400 0.823 C 28.400 1.030,27.860 1.200,27.200 1.200 C 26.540 1.200,26.000 1.380,26.000 1.600 C 26.000 1.820,25.460 2.000,24.800 2.000 C 24.140 2.000,23.600 2.180,23.600 2.400 C 23.600 2.620,23.240 2.800,22.800 2.800 C 22.360 2.800,22.000 2.980,22.000 3.200 C 22.000 3.420,21.640 3.600,21.200 3.600 C 20.760 3.600,20.400 3.780,20.400 4.000 C 20.400 4.220,20.040 4.400,19.600 4.400 C 19.160 4.400,18.800 4.580,18.800 4.800 C 18.800 5.020,18.564 5.200,18.275 5.200 C 17.987 5.200,17.364 5.560,16.892 6.000 C 16.420 6.440,15.875 6.800,15.680 6.800 C 15.486 6.800,14.470 7.609,13.423 8.599 C 12.376 9.588,11.353 10.294,11.150 10.169 C 10.946 10.043,10.830 10.179,10.890 10.470 C 10.951 10.762,10.762 10.951,10.470 10.890 C 10.179 10.830,10.050 10.957,10.183 11.173 C 10.316 11.388,9.970 11.863,9.413 12.228 C 8.856 12.593,8.400 13.069,8.400 13.286 C 8.400 13.502,7.860 14.183,7.200 14.800 C 6.540 15.417,6.000 16.143,6.000 16.414 C 6.000 16.684,5.685 17.198,5.300 17.554 C 4.490 18.304,3.465 19.964,2.494 22.100 C 2.118 22.925,1.674 23.600,1.506 23.600 C 1.338 23.600,1.200 24.125,1.200 24.767 C 1.200 25.408,0.975 26.008,0.700 26.100 C -0.036 26.345,-0.036 373.655,0.700 373.900 C 0.975 373.992,1.200 374.592,1.200 375.233 C 1.200 375.875,1.380 376.400,1.600 376.400 C 1.820 376.400,2.000 376.760,2.000 377.200 C 2.000 377.640,2.180 378.000,2.400 378.000 C 2.620 378.000,2.800 378.320,2.800 378.712 C 2.800 379.103,3.160 379.683,3.600 380.000 C 4.040 380.317,4.400 380.897,4.400 381.288 C 4.400 381.680,4.580 382.000,4.800 382.000 C 5.020 382.000,5.200 382.248,5.200 382.552 C 5.200 382.855,5.875 383.802,6.700 384.655 C 7.525 385.509,8.897 387.060,9.748 388.103 C 10.600 389.147,11.472 390.000,11.688 390.000 C 11.903 390.000,12.583 390.540,13.200 391.200 C 13.817 391.860,14.569 392.400,14.872 392.400 C 15.175 392.400,15.683 392.760,16.000 393.200 C 16.317 393.640,16.857 394.000,17.200 394.000 C 17.543 394.000,18.083 394.360,18.400 394.800 C 18.717 395.240,19.171 395.600,19.409 395.600 C 20.075 395.600,21.993 396.563,21.997 396.900 C 21.999 397.065,22.360 397.200,22.800 397.200 C 23.240 397.200,23.600 397.380,23.600 397.600 C 23.600 397.820,24.129 398.000,24.776 398.000 C 25.423 398.000,26.064 398.180,26.200 398.400 C 26.336 398.620,26.872 398.800,27.390 398.800 C 27.909 398.800,28.408 399.025,28.500 399.300 C 28.745 400.036,369.655 400.036,369.900 399.300 C 369.992 399.025,370.581 398.800,371.210 398.800 C 371.838 398.800,372.464 398.620,372.600 398.400 C 372.736 398.180,373.287 398.000,373.824 398.000 C 374.361 398.000,374.800 397.820,374.800 397.600 C 374.800 397.380,375.072 397.200,375.405 397.200 C 375.738 397.200,376.323 397.035,376.705 396.834 C 377.087 396.632,378.036 396.192,378.813 395.856 C 379.590 395.520,380.648 394.879,381.164 394.431 C 381.681 393.983,382.288 393.731,382.513 393.870 C 382.749 394.016,382.802 393.927,382.638 393.662 C 382.469 393.388,382.607 393.200,382.976 393.200 C 383.319 393.200,383.600 393.020,383.600 392.800 C 383.600 392.580,383.859 392.400,384.175 392.400 C 384.776 392.400,391.600 385.828,391.600 385.250 C 391.600 385.068,392.140 384.354,392.800 383.663 C 393.460 382.972,394.000 382.136,394.000 381.804 C 394.000 381.472,394.180 381.200,394.400 381.200 C 394.620 381.200,394.800 380.964,394.800 380.675 C 394.800 380.387,395.160 379.764,395.600 379.292 C 396.040 378.820,396.400 378.156,396.400 377.817 C 396.400 377.478,396.580 377.200,396.800 377.200 C 397.020 377.200,397.200 376.840,397.200 376.400 C 397.200 375.960,397.380 375.600,397.600 375.600 C 397.820 375.600,398.000 375.060,398.000 374.400 C 398.000 373.740,398.180 373.200,398.400 373.200 C 398.620 373.200,398.800 372.696,398.800 372.080 C 398.800 371.464,399.025 370.735,399.300 370.460 C 400.036 369.724,400.036 30.276,399.300 29.540 C 399.025 29.265,398.800 28.536,398.800 27.920 C 398.800 27.304,398.620 26.800,398.400 26.800 C 398.180 26.800,398.000 26.361,398.000 25.824 C 398.000 25.287,397.820 24.736,397.600 24.600 C 397.380 24.464,397.200 24.018,397.200 23.610 C 397.200 23.201,397.065 22.807,396.900 22.733 C 396.735 22.660,396.167 21.745,395.637 20.700 C 395.108 19.655,394.523 18.800,394.337 18.800 C 394.152 18.800,394.000 18.480,394.000 18.088 C 394.000 17.697,393.640 17.117,393.200 16.800 C 392.760 16.483,392.400 16.010,392.400 15.748 C 392.400 15.140,385.797 8.400,385.201 8.400 C 384.955 8.400,384.881 8.192,385.038 7.938 C 385.209 7.662,385.149 7.585,384.888 7.746 C 384.648 7.894,383.998 7.562,383.444 7.008 C 382.890 6.453,382.241 6.000,382.001 6.000 C 381.762 6.000,381.180 5.640,380.708 5.200 C 380.236 4.760,379.613 4.400,379.325 4.400 C 379.036 4.400,378.800 4.220,378.800 4.000 C 378.800 3.780,378.440 3.600,378.000 3.600 C 377.560 3.600,377.200 3.420,377.200 3.200 C 377.200 2.980,376.795 2.796,376.300 2.791 C 375.805 2.786,374.950 2.430,374.400 2.000 C 373.850 1.570,372.851 1.214,372.180 1.209 C 371.509 1.204,370.735 0.975,370.460 0.700 C 369.989 0.229,35.200 -0.173,30.100 0.291 M338.674 15.756 C 347.307 18.801,352.851 24.971,354.640 33.523 C 355.295 36.652,355.497 271.307,354.847 273.440 C 354.652 274.078,354.255 275.410,353.963 276.400 C 352.214 282.335,348.476 286.650,341.873 290.359 C 340.590 291.080,338.555 291.636,334.300 292.428 L 332.000 292.857 332.000 315.638 L 332.000 338.420 333.026 338.810 C 333.590 339.024,334.738 339.200,335.576 339.200 C 339.038 339.200,345.278 342.318,348.336 345.576 C 359.195 357.144,356.336 375.638,342.622 382.543 C 337.838 384.951,346.915 384.790,215.165 384.795 C 90.416 384.800,91.618 384.813,85.600 383.388 C 85.050 383.257,83.790 382.960,82.800 382.726 C 66.518 378.882,47.987 364.805,40.691 350.738 C 40.081 349.562,39.169 347.880,38.664 347.000 C 37.161 344.380,34.649 337.651,33.290 332.600 C 32.714 330.458,32.137 327.281,31.621 323.400 C 31.029 318.954,31.028 78.976,31.620 75.246 C 36.634 43.645,57.689 22.000,89.600 15.644 C 92.877 14.991,336.818 15.101,338.674 15.756 M197.600 19.142 C 193.551 20.019,190.312 22.205,188.033 25.600 C 186.697 27.591,186.146 28.939,185.173 32.600 C 183.699 38.148,183.002 39.724,180.868 42.332 C 174.262 50.407,163.805 50.064,155.283 41.495 C 149.909 36.091,146.971 34.591,141.813 34.621 C 129.994 34.688,122.720 44.902,126.161 56.600 C 127.921 62.583,128.131 64.038,127.629 66.763 C 125.739 77.023,116.479 82.900,106.520 80.162 C 96.172 77.317,90.691 78.245,85.817 83.665 C 79.071 91.169,79.857 99.105,88.253 108.260 C 92.699 113.108,93.918 115.207,94.599 119.194 C 95.944 127.060,91.024 134.817,83.200 137.165 C 74.567 139.757,72.547 140.729,69.718 143.659 C 62.618 151.011,64.850 164.436,73.896 168.786 C 76.649 170.109,77.046 170.247,80.800 171.175 C 96.281 175.001,99.664 189.227,87.937 201.186 C 82.044 207.195,79.895 213.729,82.051 219.081 C 86.200 229.385,93.241 232.463,105.327 229.255 C 111.610 227.587,114.784 227.747,119.099 229.948 C 124.802 232.858,129.000 241.176,127.658 246.905 C 126.961 249.877,126.368 252.067,125.997 253.033 C 123.480 259.601,126.883 268.502,133.308 272.158 C 137.023 274.271,143.322 275.141,146.281 273.949 C 149.614 272.607,151.224 271.501,154.543 268.273 C 158.623 264.304,160.728 262.725,162.800 262.079 C 172.509 259.050,181.538 263.880,184.336 273.600 C 184.621 274.590,185.022 275.953,185.227 276.628 C 185.432 277.304,185.600 278.080,185.600 278.354 C 185.600 280.802,190.190 286.864,193.211 288.405 C 203.882 293.849,214.395 288.744,217.592 276.565 C 219.851 267.962,222.464 264.544,228.600 262.164 C 235.254 259.583,240.557 261.120,247.470 267.632 C 253.183 273.014,255.256 274.127,259.962 274.337 C 272.241 274.886,280.026 264.675,276.535 252.600 C 275.316 248.384,274.841 241.901,275.603 239.875 C 279.221 230.251,286.790 226.371,296.800 229.009 C 307.761 231.896,313.204 230.632,317.968 224.089 C 323.465 216.540,322.520 209.126,315.062 201.296 C 309.083 195.018,308.000 192.887,308.000 187.400 C 308.000 179.162,312.789 173.536,321.800 171.186 C 332.956 168.278,336.995 163.862,336.966 154.600 C 336.937 145.079,332.603 140.670,320.000 137.340 C 309.417 134.544,304.594 122.205,310.484 113.000 C 311.047 112.120,313.052 109.780,314.938 107.800 C 325.285 96.940,322.534 83.002,309.247 78.969 C 305.968 77.974,303.495 78.203,296.280 80.168 C 287.348 82.602,278.934 78.278,275.712 69.600 C 275.172 68.144,274.961 61.111,275.435 60.344 C 275.584 60.103,275.850 59.342,276.027 58.653 C 276.203 57.964,276.623 56.320,276.960 55.000 C 279.653 44.435,271.781 34.405,260.800 34.411 C 256.325 34.413,253.229 36.053,247.942 41.225 C 235.599 53.299,222.019 49.490,217.615 32.718 C 214.894 22.354,207.119 17.080,197.600 19.142 M209.258 70.005 C 211.536 70.228,214.210 70.572,215.200 70.769 C 216.190 70.966,218.080 71.338,219.400 71.594 C 222.980 72.289,228.129 73.756,230.600 74.786 C 231.040 74.969,232.030 75.345,232.800 75.621 C 234.587 76.261,242.542 80.138,244.468 81.308 C 246.181 82.348,253.306 87.243,253.600 87.581 C 253.710 87.707,254.790 88.605,256.000 89.576 C 258.682 91.728,263.629 96.687,265.800 99.400 C 266.680 100.499,267.625 101.637,267.901 101.929 C 272.400 106.689,280.215 121.482,282.414 129.400 C 288.723 152.117,287.341 171.249,277.953 191.181 C 274.527 198.456,268.085 207.950,263.570 212.382 C 258.502 217.356,254.890 220.589,252.600 222.201 C 251.060 223.286,249.710 224.276,249.600 224.401 C 249.356 224.680,243.066 228.659,241.400 229.588 C 240.740 229.956,238.580 230.941,236.600 231.777 C 234.620 232.613,232.460 233.524,231.800 233.803 C 228.998 234.985,226.056 235.972,224.000 236.420 C 222.790 236.683,221.350 237.038,220.800 237.207 C 219.746 237.531,217.118 238.063,212.800 238.827 C 209.579 239.397,192.534 239.390,189.093 238.818 C 181.559 237.565,173.981 235.636,170.100 233.983 C 169.605 233.772,168.795 233.438,168.300 233.241 C 146.906 224.696,129.864 207.509,121.159 185.700 C 120.962 185.205,120.626 184.395,120.414 183.900 C 119.999 182.933,118.606 178.352,117.982 175.900 C 117.017 172.111,116.830 171.225,116.437 168.600 C 115.418 161.779,115.200 159.236,115.200 154.161 C 115.200 149.090,115.373 147.193,116.470 140.200 C 116.893 137.503,118.065 132.476,118.756 130.400 C 118.939 129.850,119.305 128.680,119.571 127.800 C 119.836 126.920,120.245 125.750,120.480 125.200 C 120.715 124.650,121.045 123.840,121.213 123.400 C 122.226 120.747,124.718 115.552,126.345 112.700 C 126.815 111.875,127.582 110.526,128.048 109.702 C 133.412 100.229,144.948 88.796,156.000 81.999 C 162.075 78.263,170.877 74.570,178.800 72.432 C 179.790 72.164,181.140 71.795,181.800 71.611 C 182.460 71.427,184.440 71.080,186.200 70.841 C 187.960 70.601,190.480 70.247,191.800 70.054 C 195.213 69.554,204.389 69.529,209.258 70.005 M164.071 91.175 C 159.340 92.800,158.479 94.608,157.207 105.600 C 156.965 107.690,156.598 110.660,156.392 112.200 C 156.186 113.740,155.824 116.620,155.588 118.600 C 155.353 120.580,154.993 123.460,154.788 125.000 C 154.584 126.540,154.224 129.420,153.988 131.400 C 153.753 133.380,153.395 136.260,153.193 137.800 C 152.819 140.647,152.352 144.410,151.593 150.701 C 151.360 152.626,150.997 155.301,150.785 156.646 C 149.975 161.793,150.965 164.813,154.200 167.064 C 156.458 168.636,158.771 168.800,178.620 168.800 L 197.600 168.800 197.600 169.719 C 197.600 170.224,196.423 175.309,194.984 181.019 C 193.545 186.728,192.207 192.120,192.010 193.000 C 191.813 193.880,191.457 195.320,191.220 196.200 C 190.983 197.080,190.623 198.520,190.420 199.400 C 190.217 200.280,189.857 201.720,189.620 202.600 C 189.383 203.480,189.027 204.920,188.829 205.800 C 188.208 208.565,186.557 215.083,185.992 217.000 C 183.669 224.879,188.041 230.658,195.114 229.057 C 198.695 228.246,199.098 227.793,208.703 213.800 C 215.442 203.981,222.801 193.204,227.549 186.200 C 230.085 182.460,232.319 179.220,232.515 179.000 C 232.711 178.780,235.450 174.820,238.602 170.200 C 254.128 147.440,254.400 146.989,254.400 144.000 C 254.400 140.770,252.070 136.873,249.134 135.192 L 247.400 134.200 227.479 134.079 C 204.553 133.940,206.486 134.404,208.396 129.497 C 209.102 127.684,210.039 125.210,210.479 124.000 C 210.918 122.790,211.423 121.440,211.601 121.000 C 211.901 120.257,212.374 119.004,215.600 110.400 C 216.260 108.640,217.382 105.715,218.093 103.900 C 220.539 97.657,219.651 93.573,215.374 91.400 C 213.019 90.203,167.482 90.003,164.071 91.175 M95.000 293.219 C 94.442 293.471,94.685 293.507,95.800 293.338 C 96.680 293.204,97.475 293.028,97.567 292.947 C 97.910 292.644,95.768 292.871,95.000 293.219 M87.407 296.622 C 86.311 297.380,85.535 298.000,85.681 298.000 C 86.003 298.000,90.000 295.539,90.000 295.340 C 90.000 294.979,89.240 295.355,87.407 296.622 M80.614 303.835 C 80.241 304.404,80.027 304.961,80.139 305.072 C 80.250 305.183,80.629 304.718,80.981 304.037 C 81.759 302.533,81.544 302.415,80.614 303.835 M77.800 310.800 C 77.648 311.491,77.607 312.141,77.709 312.242 C 77.811 312.344,78.009 311.853,78.150 311.150 C 78.483 309.483,78.160 309.160,77.800 310.800 M77.628 318.833 C 77.644 319.365,77.819 320.160,78.019 320.600 C 78.271 321.158,78.307 320.915,78.138 319.800 C 77.855 317.943,77.587 317.436,77.628 318.833 M83.983 331.700 C 84.964 332.745,85.819 333.600,85.883 333.600 C 86.184 333.600,85.866 333.241,84.100 331.583 L 82.200 329.800 83.983 331.700 M86.400 333.774 C 86.400 334.115,89.219 336.114,89.419 335.914 C 89.528 335.806,88.893 335.238,88.008 334.653 C 87.124 334.068,86.400 333.672,86.400 333.774 M94.600 337.981 C 95.368 338.329,97.510 338.556,97.167 338.253 C 97.075 338.172,96.280 337.996,95.400 337.862 C 94.285 337.693,94.042 337.729,94.600 337.981 M191.800 338.400 L 98.200 338.603 191.900 338.701 C 254.166 338.767,285.600 338.666,285.600 338.400 C 285.600 338.180,285.555 338.044,285.500 338.099 C 285.445 338.153,243.280 338.289,191.800 338.400 " stroke="none" fill="#fabb26" fill-rule="evenodd"></path><path id="path1" d="M89.600 15.644 C 57.689 22.000,36.634 43.645,31.620 75.246 C 31.028 78.976,31.029 318.954,31.621 323.400 C 32.137 327.281,32.714 330.458,33.290 332.600 C 34.649 337.651,37.161 344.380,38.664 347.000 C 39.169 347.880,40.081 349.562,40.691 350.738 C 47.987 364.805,66.518 378.882,82.800 382.726 C 83.790 382.960,85.050 383.257,85.600 383.388 C 91.618 384.813,90.416 384.800,215.165 384.795 C 346.915 384.790,337.838 384.951,342.622 382.543 C 356.336 375.638,359.195 357.144,348.336 345.576 C 345.278 342.318,339.038 339.200,335.576 339.200 C 334.738 339.200,333.590 339.024,333.026 338.810 L 332.000 338.420 332.000 315.638 L 332.000 292.857 334.300 292.428 C 338.555 291.636,340.590 291.080,341.873 290.359 C 348.476 286.650,352.214 282.335,353.963 276.400 C 354.255 275.410,354.652 274.078,354.847 273.440 C 355.497 271.307,355.295 36.652,354.640 33.523 C 352.851 24.971,347.307 18.801,338.674 15.756 C 336.818 15.101,92.877 14.991,89.600 15.644 M208.565 20.383 C 213.358 22.671,215.879 26.107,217.615 32.718 C 220.322 43.026,225.702 48.008,234.115 47.996 C 239.667 47.987,242.394 46.652,247.942 41.225 C 253.229 36.053,256.325 34.413,260.800 34.411 C 271.781 34.405,279.653 44.435,276.960 55.000 C 276.623 56.320,276.203 57.964,276.027 58.653 C 275.850 59.342,275.584 60.103,275.435 60.344 C 274.961 61.111,275.172 68.144,275.712 69.600 C 278.934 78.278,287.348 82.602,296.280 80.168 C 297.556 79.821,299.590 79.287,300.800 78.982 C 310.487 76.544,319.320 82.534,321.175 92.800 C 322.103 97.935,320.373 102.095,314.938 107.800 C 313.052 109.780,311.047 112.120,310.484 113.000 C 304.594 122.205,309.417 134.544,320.000 137.340 C 332.603 140.670,336.937 145.079,336.966 154.600 C 336.995 163.862,332.956 168.278,321.800 171.186 C 312.789 173.536,308.000 179.162,308.000 187.400 C 308.000 192.887,309.083 195.018,315.062 201.296 C 322.520 209.126,323.465 216.540,317.968 224.089 C 313.204 230.632,307.761 231.896,296.800 229.009 C 286.790 226.371,279.221 230.251,275.603 239.875 C 274.841 241.901,275.316 248.384,276.535 252.600 C 280.026 264.675,272.241 274.886,259.962 274.337 C 255.256 274.127,253.183 273.014,247.470 267.632 C 239.740 260.351,234.387 259.271,226.067 263.317 C 222.017 265.286,219.535 269.166,217.592 276.565 C 214.395 288.744,203.882 293.849,193.211 288.405 C 190.190 286.864,185.600 280.802,185.600 278.354 C 185.600 278.080,185.432 277.304,185.227 276.628 C 185.022 275.953,184.621 274.590,184.336 273.600 C 181.538 263.880,172.509 259.050,162.800 262.079 C 160.728 262.725,158.623 264.304,154.543 268.273 C 151.224 271.501,149.614 272.607,146.281 273.949 C 143.322 275.141,137.023 274.271,133.308 272.158 C 126.883 268.502,123.480 259.601,125.997 253.033 C 126.368 252.067,126.961 249.877,127.658 246.905 C 129.000 241.176,124.802 232.858,119.099 229.948 C 114.784 227.747,111.610 227.587,105.327 229.255 C 93.241 232.463,86.200 229.385,82.051 219.081 C 79.895 213.729,82.044 207.195,87.937 201.186 C 99.664 189.227,96.281 175.001,80.800 171.175 C 70.242 168.565,65.964 163.990,65.666 154.991 C 65.350 145.464,69.455 141.291,83.200 137.165 C 91.024 134.817,95.944 127.060,94.599 119.194 C 93.918 115.207,92.699 113.108,88.253 108.260 C 79.857 99.105,79.071 91.169,85.817 83.665 C 90.691 78.245,96.172 77.317,106.520 80.162 C 116.479 82.900,125.739 77.023,127.629 66.763 C 128.131 64.038,127.921 62.583,126.161 56.600 C 122.720 44.902,129.994 34.688,141.813 34.621 C 146.971 34.591,149.909 36.091,155.283 41.495 C 163.805 50.064,174.262 50.407,180.868 42.332 C 183.002 39.724,183.699 38.148,185.173 32.600 C 186.972 25.830,189.306 22.608,193.960 20.473 C 198.582 18.353,204.237 18.318,208.565 20.383 M191.800 70.054 C 190.480 70.247,187.960 70.601,186.200 70.841 C 184.440 71.080,182.460 71.427,181.800 71.611 C 181.140 71.795,179.790 72.164,178.800 72.432 C 163.475 76.567,151.022 83.707,140.180 94.571 C 134.866 99.897,130.558 105.270,128.048 109.702 C 127.582 110.526,126.815 111.875,126.345 112.700 C 124.718 115.552,122.226 120.747,121.213 123.400 C 121.045 123.840,120.715 124.650,120.480 125.200 C 120.245 125.750,119.836 126.920,119.571 127.800 C 119.305 128.680,118.939 129.850,118.756 130.400 C 118.065 132.476,116.893 137.503,116.470 140.200 C 115.373 147.193,115.200 149.090,115.200 154.161 C 115.200 159.236,115.418 161.779,116.437 168.600 C 116.830 171.225,117.017 172.111,117.982 175.900 C 118.606 178.352,119.999 182.933,120.414 183.900 C 120.626 184.395,120.962 185.205,121.159 185.700 C 128.198 203.336,140.083 217.404,156.200 227.180 C 158.657 228.670,165.743 232.220,168.300 233.241 C 168.795 233.438,169.605 233.772,170.100 233.983 C 173.981 235.636,181.559 237.565,189.093 238.818 C 192.534 239.390,209.579 239.397,212.800 238.827 C 217.118 238.063,219.746 237.531,220.800 237.207 C 221.350 237.038,222.790 236.683,224.000 236.420 C 226.056 235.972,228.998 234.985,231.800 233.803 C 241.482 229.720,240.775 230.070,246.000 226.774 C 247.870 225.594,249.490 224.527,249.600 224.401 C 249.710 224.276,251.060 223.286,252.600 222.201 C 254.890 220.589,258.502 217.356,263.570 212.382 C 268.085 207.950,274.527 198.456,277.953 191.181 C 287.341 171.249,288.723 152.117,282.414 129.400 C 280.215 121.482,272.400 106.689,267.901 101.929 C 267.625 101.637,266.680 100.499,265.800 99.400 C 263.629 96.687,258.682 91.728,256.000 89.576 C 254.790 88.605,253.710 87.707,253.600 87.581 C 253.306 87.243,246.181 82.348,244.468 81.308 C 242.542 80.138,234.587 76.261,232.800 75.621 C 232.030 75.345,231.040 74.969,230.600 74.786 C 228.129 73.756,222.980 72.289,219.400 71.594 C 218.080 71.338,216.190 70.966,215.200 70.769 C 209.695 69.671,197.057 69.285,191.800 70.054 M215.374 91.400 C 219.651 93.573,220.539 97.657,218.093 103.900 C 217.382 105.715,216.260 108.640,215.600 110.400 C 212.374 119.004,211.901 120.257,211.601 121.000 C 211.423 121.440,210.918 122.790,210.479 124.000 C 210.039 125.210,209.102 127.684,208.396 129.497 C 206.486 134.404,204.553 133.940,227.479 134.079 L 247.400 134.200 249.134 135.192 C 252.070 136.873,254.400 140.770,254.400 144.000 C 254.400 146.989,254.128 147.440,238.602 170.200 C 235.450 174.820,232.711 178.780,232.515 179.000 C 232.319 179.220,230.085 182.460,227.549 186.200 C 222.801 193.204,215.442 203.981,208.703 213.800 C 199.098 227.793,198.695 228.246,195.114 229.057 C 188.041 230.658,183.669 224.879,185.992 217.000 C 186.557 215.083,188.208 208.565,188.829 205.800 C 189.027 204.920,189.383 203.480,189.620 202.600 C 189.857 201.720,190.217 200.280,190.420 199.400 C 190.623 198.520,190.983 197.080,191.220 196.200 C 191.457 195.320,191.813 193.880,192.010 193.000 C 192.207 192.120,193.545 186.728,194.984 181.019 C 196.423 175.309,197.600 170.224,197.600 169.719 L 197.600 168.800 178.620 168.800 C 158.771 168.800,156.458 168.636,154.200 167.064 C 150.965 164.813,149.975 161.793,150.785 156.646 C 150.997 155.301,151.360 152.626,151.593 150.701 C 152.352 144.410,152.819 140.647,153.193 137.800 C 153.395 136.260,153.753 133.380,153.988 131.400 C 154.224 129.420,154.584 126.540,154.788 125.000 C 154.993 123.460,155.353 120.580,155.588 118.600 C 155.824 116.620,156.186 113.740,156.392 112.200 C 156.598 110.660,156.965 107.690,157.207 105.600 C 158.479 94.608,159.340 92.800,164.071 91.175 C 167.482 90.003,213.019 90.203,215.374 91.400 M285.600 315.810 L 285.600 338.813 190.700 338.700 C 102.012 338.594,95.672 338.541,93.845 337.896 C 80.389 333.142,73.766 318.568,79.444 306.200 C 82.167 300.266,87.068 295.901,93.749 293.459 C 95.166 292.941,178.970 292.526,246.300 292.704 L 285.600 292.808 285.600 315.810 " stroke="none" fill="#040404" fill-rule="evenodd"></path><path id="path2" d="M10.175 11.300 L 9.000 12.600 10.300 11.425 C 11.512 10.330,11.784 10.000,11.475 10.000 C 11.406 10.000,10.821 10.585,10.175 11.300 M95.600 293.378 C 76.190 297.765,71.275 323.314,87.697 334.466 C 94.047 338.778,85.549 338.464,192.200 338.323 L 285.400 338.200 285.400 315.600 L 285.400 293.000 191.600 292.941 C 118.116 292.894,97.324 292.989,95.600 293.378 " stroke="none" fill="#fbfbfb" fill-rule="evenodd"></path></g></svg>