<svg id="svg" version="1.1" xmlns="http://www.w3.org/2000/svg" xmlns:xlink="http://www.w3.org/1999/xlink" width="400" height="400" viewBox="0, 0, 400,400"><g id="svgg"><path id="path0" d="M30.100 0.291 C 29.165 0.376,28.400 0.616,28.400 0.823 C 28.400 1.030,27.860 1.200,27.200 1.200 C 26.540 1.200,26.000 1.380,26.000 1.600 C 26.000 1.820,25.460 2.000,24.800 2.000 C 24.140 2.000,23.600 2.180,23.600 2.400 C 23.600 2.620,23.240 2.800,22.800 2.800 C 22.360 2.800,22.000 2.980,22.000 3.200 C 22.000 3.420,21.640 3.600,21.200 3.600 C 20.760 3.600,20.400 3.780,20.400 4.000 C 20.400 4.220,20.040 4.400,19.600 4.400 C 19.160 4.400,18.800 4.580,18.800 4.800 C 18.800 5.020,18.564 5.200,18.275 5.200 C 17.987 5.200,17.364 5.560,16.892 6.000 C 16.420 6.440,15.828 6.800,15.577 6.800 C 15.326 6.800,14.644 7.295,14.060 7.900 C 13.477 8.505,12.505 9.255,11.900 9.568 C 11.295 9.880,10.800 10.369,10.800 10.656 C 10.800 10.942,10.260 11.575,9.600 12.063 C 8.940 12.551,8.400 13.114,8.400 13.315 C 8.400 13.515,7.860 14.183,7.200 14.800 C 6.540 15.417,6.000 16.143,6.000 16.414 C 6.000 16.684,5.685 17.198,5.300 17.554 C 4.490 18.304,3.465 19.964,2.494 22.100 C 2.118 22.925,1.674 23.600,1.506 23.600 C 1.338 23.600,1.200 24.125,1.200 24.767 C 1.200 25.408,0.975 26.008,0.700 26.100 C -0.036 26.345,-0.036 373.655,0.700 373.900 C 0.975 373.992,1.200 374.592,1.200 375.233 C 1.200 375.875,1.380 376.400,1.600 376.400 C 1.820 376.400,2.000 376.760,2.000 377.200 C 2.000 377.640,2.180 378.000,2.400 378.000 C 2.620 378.000,2.800 378.320,2.800 378.712 C 2.800 379.103,3.160 379.683,3.600 380.000 C 4.040 380.317,4.400 380.897,4.400 381.288 C 4.400 381.680,4.580 382.000,4.800 382.000 C 5.020 382.000,5.200 382.248,5.200 382.552 C 5.200 382.855,5.875 383.802,6.700 384.655 C 7.525 385.509,8.897 387.060,9.748 388.103 C 10.600 389.147,11.472 390.000,11.688 390.000 C 11.903 390.000,12.583 390.540,13.200 391.200 C 13.817 391.860,14.569 392.400,14.872 392.400 C 15.175 392.400,15.683 392.760,16.000 393.200 C 16.317 393.640,16.857 394.000,17.200 394.000 C 17.543 394.000,18.083 394.360,18.400 394.800 C 18.717 395.240,19.171 395.600,19.409 395.600 C 20.075 395.600,21.993 396.563,21.997 396.900 C 21.999 397.065,22.349 397.200,22.776 397.200 C 23.203 397.200,23.664 397.380,23.800 397.600 C 23.936 397.820,24.476 398.000,25.000 398.000 C 25.524 398.000,26.064 398.180,26.200 398.400 C 26.336 398.620,26.987 398.800,27.647 398.800 C 28.307 398.800,28.757 398.945,28.647 399.123 C 28.538 399.301,29.202 399.526,30.124 399.623 C 34.679 400.104,369.738 399.785,369.900 399.300 C 369.992 399.025,370.581 398.800,371.210 398.800 C 371.838 398.800,372.464 398.620,372.600 398.400 C 372.736 398.180,373.287 398.000,373.824 398.000 C 374.361 398.000,374.800 397.820,374.800 397.600 C 374.800 397.380,375.149 397.200,375.576 397.200 C 376.003 397.200,376.464 397.020,376.600 396.800 C 376.736 396.580,377.287 396.400,377.824 396.400 C 378.361 396.400,378.800 396.220,378.800 396.000 C 378.800 395.780,379.036 395.600,379.325 395.600 C 379.613 395.600,380.236 395.240,380.708 394.800 C 381.180 394.360,381.804 394.000,382.095 394.000 C 382.386 394.000,382.883 393.640,383.200 393.200 C 383.517 392.760,384.002 392.400,384.278 392.400 C 384.911 392.400,392.400 384.882,392.400 384.247 C 392.400 383.988,392.760 383.517,393.200 383.200 C 393.640 382.883,394.000 382.303,394.000 381.912 C 394.000 381.520,394.180 381.200,394.400 381.200 C 394.620 381.200,394.800 380.964,394.800 380.675 C 394.800 380.387,395.160 379.764,395.600 379.292 C 396.040 378.820,396.400 378.156,396.400 377.817 C 396.400 377.478,396.580 377.200,396.800 377.200 C 397.020 377.200,397.200 376.739,397.200 376.176 C 397.200 375.613,397.342 375.240,397.515 375.348 C 397.688 375.455,397.870 375.060,397.919 374.471 C 397.967 373.882,398.185 373.340,398.403 373.267 C 398.622 373.193,398.800 372.644,398.800 372.047 C 398.800 371.449,399.025 370.735,399.300 370.460 C 400.036 369.724,400.036 30.276,399.300 29.540 C 399.025 29.265,398.800 28.536,398.800 27.920 C 398.800 27.304,398.620 26.800,398.400 26.800 C 398.180 26.800,398.000 26.260,398.000 25.600 C 398.000 24.940,397.820 24.400,397.600 24.400 C 397.380 24.400,397.200 24.040,397.200 23.600 C 397.200 23.160,397.020 22.800,396.800 22.800 C 396.580 22.800,396.400 22.440,396.400 22.000 C 396.400 21.560,396.220 21.200,396.000 21.200 C 395.780 21.200,395.600 20.964,395.600 20.675 C 395.600 20.387,395.240 19.764,394.800 19.292 C 394.360 18.820,394.000 18.196,394.000 17.905 C 394.000 17.614,393.640 17.117,393.200 16.800 C 392.760 16.483,392.400 16.010,392.400 15.748 C 392.400 15.140,385.797 8.400,385.201 8.400 C 384.955 8.400,384.881 8.192,385.038 7.938 C 385.209 7.662,385.149 7.585,384.888 7.746 C 384.648 7.894,383.998 7.562,383.444 7.008 C 382.890 6.453,382.241 6.000,382.001 6.000 C 381.762 6.000,381.180 5.640,380.708 5.200 C 380.236 4.760,379.613 4.400,379.325 4.400 C 379.036 4.400,378.800 4.220,378.800 4.000 C 378.800 3.780,378.440 3.600,378.000 3.600 C 377.560 3.600,377.200 3.420,377.200 3.200 C 377.200 2.980,376.795 2.796,376.300 2.791 C 375.805 2.786,374.950 2.430,374.400 2.000 C 373.850 1.570,372.830 1.214,372.133 1.209 C 371.437 1.204,370.792 0.975,370.700 0.700 C 370.543 0.229,35.199 -0.174,30.100 0.291 M338.674 15.756 C 347.307 18.801,352.851 24.971,354.640 33.523 C 355.295 36.652,355.497 271.307,354.847 273.440 C 354.652 274.078,354.255 275.410,353.963 276.400 C 352.274 282.131,348.273 286.866,342.396 290.088 C 340.615 291.065,338.792 291.592,334.300 292.428 L 332.000 292.857 332.000 315.638 L 332.000 338.420 333.026 338.810 C 333.590 339.024,334.738 339.200,335.576 339.200 C 339.038 339.200,345.278 342.318,348.336 345.576 C 359.209 357.159,356.353 375.629,342.622 382.543 C 337.838 384.951,346.915 384.790,215.165 384.795 C 90.416 384.800,91.618 384.813,85.600 383.388 C 85.050 383.257,83.790 382.960,82.800 382.726 C 66.518 378.882,47.987 364.805,40.691 350.738 C 40.081 349.562,39.169 347.880,38.664 347.000 C 36.543 343.303,33.469 334.296,32.453 328.800 C 31.240 322.235,31.195 318.838,31.197 234.920 C 31.200 157.013,31.144 149.609,30.557 149.280 C 30.044 148.993,29.959 148.487,30.137 146.760 C 30.260 145.572,30.358 142.125,30.356 139.100 C 30.353 135.491,30.498 133.600,30.776 133.600 C 31.071 133.600,31.200 125.097,31.200 105.746 C 31.200 88.247,31.356 76.909,31.620 75.246 C 36.634 43.645,57.689 22.000,89.600 15.644 C 92.877 14.991,336.818 15.101,338.674 15.756 M196.200 24.942 C 189.904 27.689,187.646 30.548,185.655 38.297 C 181.624 53.976,167.727 57.005,155.800 44.803 C 149.892 38.760,143.742 37.605,136.644 41.205 C 129.018 45.074,126.777 51.952,129.726 62.432 C 132.520 72.360,128.902 79.536,119.081 83.543 C 116.820 84.466,113.456 84.106,106.800 82.230 C 104.226 81.504,98.925 81.404,97.319 82.051 C 89.231 85.308,85.389 91.332,86.374 99.213 C 86.878 103.240,88.036 105.277,92.417 109.837 C 97.478 115.106,99.192 118.435,99.191 123.000 C 99.189 130.425,94.230 136.562,86.739 138.408 C 78.456 140.449,74.747 142.728,72.656 147.058 C 72.246 147.906,71.751 148.913,71.556 149.295 C 71.010 150.361,71.139 158.390,71.729 160.085 C 73.603 165.465,78.242 168.997,85.800 170.800 C 91.599 172.182,95.543 175.159,97.512 179.637 C 99.071 183.183,99.200 183.683,99.200 186.159 C 99.200 191.213,97.409 194.581,91.567 200.517 C 78.707 213.583,90.409 232.075,108.200 226.800 C 112.517 225.520,117.364 225.198,119.481 226.051 C 129.090 229.920,132.742 237.707,129.587 247.600 C 126.082 258.591,131.026 267.779,141.505 269.748 C 147.074 270.795,150.804 269.314,156.646 263.738 C 167.718 253.168,181.437 255.796,185.155 269.200 C 185.430 270.190,185.822 271.553,186.027 272.228 C 186.232 272.904,186.400 273.671,186.400 273.933 C 186.400 276.528,190.698 281.888,194.097 283.530 C 204.516 288.563,214.048 283.872,217.117 272.200 C 219.163 264.419,221.641 260.791,226.351 258.682 C 233.092 255.664,239.181 256.935,245.200 262.616 C 250.234 267.368,250.541 267.618,252.400 268.495 C 265.103 274.487,277.920 262.590,273.832 248.600 C 272.476 243.962,272.326 242.974,272.520 239.962 C 273.168 229.894,283.200 223.170,293.000 226.234 C 300.418 228.553,303.950 228.523,308.373 226.103 C 318.334 220.652,319.697 208.972,311.374 200.400 C 305.296 194.141,304.000 191.652,304.000 186.235 C 304.000 178.473,308.769 172.970,317.400 170.773 C 323.274 169.277,325.083 168.420,327.670 165.905 C 333.369 160.367,333.637 150.067,328.239 144.116 C 325.643 141.254,323.116 139.994,317.600 138.811 C 309.312 137.034,304.077 131.077,304.021 123.360 C 303.982 118.046,305.206 115.597,310.857 109.678 C 315.346 104.975,316.549 102.604,316.742 98.069 C 317.234 86.568,307.063 79.009,295.611 82.365 C 289.226 84.236,288.142 84.341,284.400 83.445 C 274.310 81.030,269.960 71.005,274.141 59.800 C 276.272 54.088,273.320 45.798,267.803 42.002 C 260.922 37.268,254.325 38.301,246.861 45.282 C 238.788 52.832,233.521 54.078,225.688 50.290 C 220.951 47.999,218.677 44.073,216.141 33.800 C 214.435 26.892,203.185 21.895,196.200 24.942 M207.800 73.412 C 219.237 74.450,225.719 76.049,234.696 80.045 C 235.628 80.460,236.467 80.800,236.558 80.800 C 236.650 80.800,238.622 81.857,240.940 83.148 C 256.409 91.768,270.608 107.482,276.407 122.400 C 276.878 123.610,277.504 125.140,277.798 125.800 C 279.152 128.832,281.145 135.936,281.781 140.000 C 283.127 148.596,283.557 158.621,282.793 163.567 C 281.802 169.987,281.449 171.937,280.908 174.000 C 280.590 175.210,280.188 176.740,280.014 177.400 C 272.919 204.245,244.914 230.637,219.400 234.525 C 218.740 234.625,216.580 235.027,214.600 235.418 C 207.018 236.914,191.946 236.405,182.600 234.336 C 179.073 233.555,178.458 233.390,174.800 232.241 C 156.676 226.548,138.763 211.901,129.497 195.200 C 126.771 190.285,124.000 184.373,124.000 183.470 C 124.000 183.189,123.849 182.789,123.663 182.580 C 122.959 181.784,120.595 172.753,119.535 166.800 C 118.403 160.447,118.896 144.084,120.403 138.000 C 120.593 137.230,120.964 135.700,121.227 134.600 C 126.601 112.093,143.025 91.842,164.200 81.612 C 176.183 75.823,184.883 73.725,200.400 72.886 C 200.950 72.856,204.280 73.093,207.800 73.412 M166.110 93.588 C 164.552 93.959,162.899 94.991,161.750 96.311 C 160.405 97.856,160.081 99.330,158.813 109.699 C 157.778 118.155,157.554 119.960,157.207 122.600 C 157.005 124.140,156.647 127.020,156.412 129.000 C 156.176 130.980,155.816 133.860,155.612 135.400 C 155.407 136.940,155.046 139.820,154.808 141.800 C 154.076 147.888,153.579 151.693,153.181 154.246 C 152.047 161.529,152.977 164.813,156.842 167.169 C 158.167 167.977,158.684 167.997,177.913 167.999 C 195.320 168.000,197.653 168.072,197.862 168.618 C 198.077 169.177,197.301 173.134,196.375 176.200 C 196.176 176.860,194.387 184.060,192.400 192.200 C 190.413 200.340,188.630 207.540,188.439 208.200 C 188.248 208.860,187.880 210.300,187.621 211.400 C 187.362 212.500,186.936 214.120,186.675 215.000 C 184.724 221.576,187.696 226.395,193.705 226.399 C 197.698 226.401,199.086 225.413,202.975 219.800 C 206.397 214.861,214.857 202.535,224.389 188.600 C 226.947 184.860,231.571 178.110,234.665 173.600 C 237.758 169.090,242.005 162.880,244.104 159.800 C 246.202 156.720,248.459 153.480,249.119 152.600 C 253.357 146.950,253.448 141.208,249.357 137.616 C 246.801 135.372,247.207 135.415,226.605 135.200 C 204.432 134.969,206.378 135.484,208.366 130.374 C 209.045 128.628,210.140 125.760,210.800 124.000 C 211.460 122.240,212.558 119.315,213.240 117.500 C 213.922 115.685,214.839 113.210,215.279 112.000 C 215.718 110.790,216.223 109.440,216.400 109.000 C 216.577 108.560,217.115 107.120,217.596 105.800 C 218.077 104.480,218.634 102.987,218.835 102.481 C 220.196 99.054,217.585 94.468,213.769 93.583 C 211.884 93.146,167.952 93.151,166.110 93.588 M95.000 293.219 C 94.442 293.471,94.685 293.507,95.800 293.338 C 96.680 293.204,97.475 293.028,97.567 292.947 C 97.910 292.644,95.768 292.871,95.000 293.219 M87.407 296.622 C 86.311 297.380,85.535 298.000,85.681 298.000 C 86.003 298.000,90.000 295.539,90.000 295.340 C 90.000 294.979,89.240 295.355,87.407 296.622 M80.614 303.835 C 80.241 304.404,80.027 304.961,80.139 305.072 C 80.250 305.183,80.629 304.718,80.981 304.037 C 81.759 302.533,81.544 302.415,80.614 303.835 M77.800 310.800 C 77.648 311.491,77.607 312.141,77.709 312.242 C 77.811 312.344,78.009 311.853,78.150 311.150 C 78.483 309.483,78.160 309.160,77.800 310.800 M77.628 318.833 C 77.644 319.365,77.819 320.160,78.019 320.600 C 78.271 321.158,78.307 320.915,78.138 319.800 C 77.855 317.943,77.587 317.436,77.628 318.833 M83.983 331.700 C 84.964 332.745,85.819 333.600,85.883 333.600 C 86.184 333.600,85.866 333.241,84.100 331.583 L 82.200 329.800 83.983 331.700 M86.400 333.774 C 86.400 334.115,89.219 336.114,89.419 335.914 C 89.528 335.806,88.893 335.238,88.008 334.653 C 87.124 334.068,86.400 333.672,86.400 333.774 M94.600 337.981 C 95.368 338.329,97.510 338.556,97.167 338.253 C 97.075 338.172,96.280 337.996,95.400 337.862 C 94.285 337.693,94.042 337.729,94.600 337.981 M191.800 338.400 L 98.200 338.603 191.900 338.701 C 254.166 338.767,285.600 338.666,285.600 338.400 C 285.600 338.180,285.555 338.044,285.500 338.099 C 285.445 338.153,243.280 338.289,191.800 338.400 " stroke="none" fill="#fabb26" fill-rule="evenodd"></path><path id="path1" d="M95.600 293.378 C 76.190 297.765,71.275 323.314,87.697 334.466 C 94.047 338.778,85.549 338.464,192.200 338.323 L 285.400 338.200 285.400 315.600 L 285.400 293.000 191.600 292.941 C 118.116 292.894,97.324 292.989,95.600 293.378 " stroke="none" fill="#fbfbfb" fill-rule="evenodd"></path><path id="path2" d="M89.600 15.644 C 57.689 22.000,36.634 43.645,31.620 75.246 C 31.356 76.909,31.200 88.247,31.200 105.746 C 31.200 125.097,31.071 133.600,30.776 133.600 C 30.498 133.600,30.353 135.491,30.356 139.100 C 30.358 142.125,30.260 145.572,30.137 146.760 C 29.959 148.487,30.044 148.993,30.557 149.280 C 31.144 149.609,31.200 157.013,31.197 234.920 C 31.195 318.838,31.240 322.235,32.453 328.800 C 33.469 334.296,36.543 343.303,38.664 347.000 C 39.169 347.880,40.081 349.562,40.691 350.738 C 47.987 364.805,66.518 378.882,82.800 382.726 C 83.790 382.960,85.050 383.257,85.600 383.388 C 91.618 384.813,90.416 384.800,215.165 384.795 C 346.915 384.790,337.838 384.951,342.622 382.543 C 356.353 375.629,359.209 357.159,348.336 345.576 C 345.278 342.318,339.038 339.200,335.576 339.200 C 334.738 339.200,333.590 339.024,333.026 338.810 L 332.000 338.420 332.000 315.638 L 332.000 292.857 334.300 292.428 C 338.792 291.592,340.615 291.065,342.396 290.088 C 348.273 286.866,352.274 282.131,353.963 276.400 C 354.255 275.410,354.652 274.078,354.847 273.440 C 355.497 271.307,355.295 36.652,354.640 33.523 C 352.851 24.971,347.307 18.801,338.674 15.756 C 336.818 15.101,92.877 14.991,89.600 15.644 M206.636 24.872 C 210.791 26.298,215.344 30.575,216.141 33.800 C 218.677 44.073,220.951 47.999,225.688 50.290 C 233.521 54.078,238.788 52.832,246.861 45.282 C 254.325 38.301,260.922 37.268,267.803 42.002 C 273.320 45.798,276.272 54.088,274.141 59.800 C 269.960 71.005,274.310 81.030,284.400 83.445 C 288.142 84.341,289.226 84.236,295.611 82.365 C 307.063 79.009,317.234 86.568,316.742 98.069 C 316.549 102.604,315.346 104.975,310.857 109.678 C 305.206 115.597,303.982 118.046,304.021 123.360 C 304.077 131.077,309.312 137.034,317.600 138.811 C 323.116 139.994,325.643 141.254,328.239 144.116 C 333.637 150.067,333.369 160.367,327.670 165.905 C 325.083 168.420,323.274 169.277,317.400 170.773 C 308.769 172.970,304.000 178.473,304.000 186.235 C 304.000 191.652,305.296 194.141,311.374 200.400 C 319.697 208.972,318.334 220.652,308.373 226.103 C 303.950 228.523,300.418 228.553,293.000 226.234 C 283.200 223.170,273.168 229.894,272.520 239.962 C 272.326 242.974,272.476 243.962,273.832 248.600 C 277.920 262.590,265.103 274.487,252.400 268.495 C 250.541 267.618,250.234 267.368,245.200 262.616 C 239.181 256.935,233.092 255.664,226.351 258.682 C 221.641 260.791,219.163 264.419,217.117 272.200 C 214.906 280.611,209.103 285.600,201.531 285.600 C 194.980 285.600,186.400 278.984,186.400 273.933 C 186.400 273.671,186.232 272.904,186.027 272.228 C 185.822 271.553,185.430 270.190,185.155 269.200 C 181.437 255.796,167.718 253.168,156.646 263.738 C 150.804 269.314,147.074 270.795,141.505 269.748 C 131.026 267.779,126.082 258.591,129.587 247.600 C 132.742 237.707,129.090 229.920,119.481 226.051 C 117.364 225.198,112.517 225.520,108.200 226.800 C 90.409 232.075,78.707 213.583,91.567 200.517 C 98.312 193.664,100.773 187.492,98.743 182.519 C 95.754 175.195,92.723 172.451,85.800 170.800 C 78.242 168.997,73.603 165.465,71.729 160.085 C 71.139 158.390,71.010 150.361,71.556 149.295 C 71.751 148.913,72.246 147.906,72.656 147.058 C 74.747 142.728,78.456 140.449,86.739 138.408 C 94.230 136.562,99.189 130.425,99.191 123.000 C 99.192 118.435,97.478 115.106,92.417 109.837 C 82.333 99.340,84.471 87.225,97.319 82.051 C 98.925 81.404,104.226 81.504,106.800 82.230 C 113.456 84.106,116.820 84.466,119.081 83.543 C 128.902 79.536,132.520 72.360,129.726 62.432 C 126.777 51.952,129.018 45.074,136.644 41.205 C 143.742 37.605,149.892 38.760,155.800 44.803 C 167.727 57.005,181.624 53.976,185.655 38.297 C 187.222 32.200,189.645 28.283,192.962 26.486 C 197.977 23.768,202.027 23.290,206.636 24.872 M197.600 73.074 C 183.137 74.156,175.696 76.058,164.200 81.612 C 143.025 91.842,126.601 112.093,121.227 134.600 C 120.964 135.700,120.593 137.230,120.403 138.000 C 118.896 144.084,118.403 160.447,119.535 166.800 C 120.595 172.753,122.959 181.784,123.663 182.580 C 123.849 182.789,124.000 183.189,124.000 183.470 C 124.000 184.373,126.771 190.285,129.497 195.200 C 138.763 211.901,156.676 226.548,174.800 232.241 C 178.458 233.390,179.073 233.555,182.600 234.336 C 191.946 236.405,207.018 236.914,214.600 235.418 C 216.580 235.027,218.740 234.625,219.400 234.525 C 244.914 230.637,272.919 204.245,280.014 177.400 C 281.554 171.571,281.566 171.512,282.793 163.567 C 283.557 158.621,283.127 148.596,281.781 140.000 C 281.145 135.936,279.152 128.832,277.798 125.800 C 277.504 125.140,276.878 123.610,276.407 122.400 C 270.608 107.482,256.409 91.768,240.940 83.148 C 238.622 81.857,236.650 80.800,236.558 80.800 C 236.467 80.800,235.628 80.460,234.696 80.045 C 228.571 77.319,222.874 75.558,216.400 74.390 C 213.857 73.931,201.882 72.805,200.400 72.886 C 199.850 72.915,198.590 73.000,197.600 73.074 M213.769 93.583 C 217.585 94.468,220.196 99.054,218.835 102.481 C 218.634 102.987,218.077 104.480,217.596 105.800 C 217.115 107.120,216.577 108.560,216.400 109.000 C 216.223 109.440,215.718 110.790,215.279 112.000 C 214.839 113.210,213.922 115.685,213.240 117.500 C 212.558 119.315,211.460 122.240,210.800 124.000 C 210.140 125.760,209.045 128.628,208.366 130.374 C 206.378 135.484,204.432 134.969,226.605 135.200 C 247.207 135.415,246.801 135.372,249.357 137.616 C 253.448 141.208,253.357 146.950,249.119 152.600 C 248.459 153.480,246.202 156.720,244.104 159.800 C 242.005 162.880,237.758 169.090,234.665 173.600 C 231.571 178.110,226.947 184.860,224.389 188.600 C 214.857 202.535,206.397 214.861,202.975 219.800 C 199.086 225.413,197.698 226.401,193.705 226.399 C 187.696 226.395,184.724 221.576,186.675 215.000 C 186.936 214.120,187.362 212.500,187.621 211.400 C 187.880 210.300,188.248 208.860,188.439 208.200 C 188.630 207.540,190.413 200.340,192.400 192.200 C 194.387 184.060,196.176 176.860,196.375 176.200 C 197.301 173.134,198.077 169.177,197.862 168.618 C 197.653 168.072,195.320 168.000,177.913 167.999 C 158.684 167.997,158.167 167.977,156.842 167.169 C 152.977 164.813,152.047 161.529,153.181 154.246 C 153.579 151.693,154.076 147.888,154.808 141.800 C 155.046 139.820,155.407 136.940,155.612 135.400 C 155.816 133.860,156.176 130.980,156.412 129.000 C 156.647 127.020,157.005 124.140,157.207 122.600 C 157.554 119.960,157.778 118.155,158.813 109.699 C 160.081 99.330,160.405 97.856,161.750 96.311 C 162.899 94.991,164.552 93.959,166.110 93.588 C 167.952 93.151,211.884 93.146,213.769 93.583 M248.850 292.800 L 285.600 292.800 285.600 315.806 L 285.600 338.813 190.700 338.700 C 102.012 338.594,95.672 338.541,93.845 337.896 C 80.389 333.142,73.766 318.568,79.444 306.200 C 82.167 300.266,87.067 295.902,93.749 293.459 C 94.870 293.049,207.210 292.306,210.950 292.684 C 211.582 292.748,228.638 292.800,248.850 292.800 " stroke="none" fill="#040404" fill-rule="evenodd"></path></g></svg>