<svg id="svg" version="1.1" xmlns="http://www.w3.org/2000/svg" xmlns:xlink="http://www.w3.org/1999/xlink" width="400" height="400" viewBox="0, 0, 400,400"><g id="svgg"><path id="path0" d="M87.252 16.071 C 65.626 20.313,47.188 34.904,37.648 55.325 C 31.065 69.417,31.600 56.626,31.600 200.000 L 31.600 327.600 33.805 334.631 C 41.878 360.366,61.279 378.349,86.566 383.535 C 94.076 385.076,333.897 385.486,339.363 383.968 C 361.644 377.780,357.921 339.200,335.043 339.200 L 332.000 339.200 332.000 316.066 L 332.000 292.933 336.040 292.066 C 343.606 290.443,349.150 286.307,352.651 279.672 L 354.800 275.600 354.800 154.000 L 354.800 32.400 353.115 28.759 C 350.719 23.581,346.972 19.628,342.207 17.254 L 338.086 15.200 214.443 15.288 C 146.439 15.336,89.204 15.688,87.252 16.071 M210.166 26.550 C 213.594 28.819,216.104 33.162,217.949 40.016 C 221.604 53.593,235.282 56.105,246.915 45.336 C 261.853 31.506,278.518 42.679,273.253 62.994 C 269.698 76.716,280.443 86.943,294.073 82.809 C 313.115 77.032,324.262 94.957,310.760 109.644 C 299.246 122.168,302.847 135.560,318.682 139.104 C 336.242 143.033,337.098 164.795,319.898 170.006 C 302.208 175.364,298.856 186.367,310.785 199.922 C 323.510 214.382,313.218 232.225,295.233 226.884 C 279.577 222.234,269.690 231.827,273.537 247.935 C 275.569 256.440,274.743 260.499,270.023 265.219 C 266.716 268.526,260.365 270.963,257.428 270.052 C 256.863 269.877,255.395 269.513,254.168 269.243 C 252.940 268.974,249.820 266.809,247.235 264.432 C 234.177 252.428,222.229 255.186,217.301 271.343 C 211.103 291.662,191.478 290.621,185.172 269.638 C 181.039 255.883,168.508 253.011,157.227 263.234 C 142.338 276.727,124.691 267.923,129.226 249.265 C 133.358 232.267,123.879 222.074,108.327 226.791 C 89.967 232.361,79.066 213.766,92.386 199.600 C 103.414 187.872,100.090 173.765,85.600 170.801 C 66.128 166.818,65.760 143.978,85.086 138.931 C 100.365 134.941,103.632 121.899,92.416 109.677 C 77.882 93.840,89.197 78.015,111.324 83.232 C 125.547 86.585,132.649 76.296,128.789 57.928 C 125.281 41.237,143.241 33.486,156.800 45.839 C 168.679 56.663,181.168 53.362,185.640 38.216 C 189.471 25.243,200.362 20.062,210.166 26.550 M193.200 73.333 C 125.155 81.649,94.991 158.356,139.729 209.312 C 162.226 234.937,203.313 243.574,234.690 229.276 C 292.101 203.113,300.091 126.448,249.344 88.676 C 234.133 77.354,211.316 71.119,193.200 73.333 M213.799 93.642 C 216.759 94.464,219.200 97.490,219.200 100.337 C 219.200 101.006,216.500 108.774,213.200 117.600 C 209.900 126.426,207.200 133.996,207.200 134.423 C 207.200 134.904,214.637 135.200,226.739 135.200 L 246.277 135.200 248.724 137.258 C 251.867 139.903,253.238 144.598,251.819 147.862 C 249.735 152.659,199.615 224.719,197.782 225.554 C 193.144 227.667,188.480 226.144,186.725 221.944 C 185.708 219.509,192.598 187.643,198.087 169.400 C 198.480 168.092,197.158 168.000,177.992 168.000 L 157.477 168.000 155.138 165.662 C 152.094 162.617,152.072 163.264,156.423 128.526 C 160.829 93.339,160.328 95.066,166.567 93.588 C 170.597 92.633,210.330 92.678,213.799 93.642 M285.600 315.600 L 285.600 338.400 190.157 338.400 L 94.714 338.400 90.566 336.333 C 72.068 327.115,73.655 301.526,93.200 293.863 C 94.989 293.161,119.796 292.906,190.600 292.861 L 285.600 292.800 285.600 315.600 " stroke="none" fill="#000000" fill-rule="evenodd"></path></g></svg>